<?xml version="1.0" encoding="UTF-8" standalone="no"?><!-- Generator: Gravit.io --><svg xmlns="http://www.w3.org/2000/svg" xmlns:xlink="http://www.w3.org/1999/xlink" style="isolation:isolate" viewBox="0 0 1024 1024" width="1024pt" height="1024pt"><defs><clipPath id="_clipPath_mH8ySy2HefPtmDe7Nrpa4MZqMxToG5LU"><rect width="1024" height="1024"/></clipPath></defs><g clip-path="url(#_clipPath_mH8ySy2HefPtmDe7Nrpa4MZqMxToG5LU)"><rect x="0" y="0" width="1024" height="1024" transform="matrix(1,0,0,1,0,0)" fill="rgb(255,153,0)"/><g><g opacity="0.8"><ellipse vector-effect="non-scaling-stroke" cx="405.7909776295128" cy="837.0922578741308" rx="148.7909776295139" ry="46.98662451458324" fill="rgb(0,0,0)"/></g><g style="opacity:0.4;"><path d=" M 553.901 599.478 L 473.44 737.514 L 945.213 697.087 L 553.901 599.478 Z " fill="rgb(0,0,0)"/><path d=" M 561.437 577.95 C 560.106 577.962 558.749 578.014 557.518 578.062 C 546.987 578.328 537.306 580.398 531.921 583.536 L 530.247 583.122 L 529.032 585.02 C 528.399 585.634 527.993 586.269 527.823 586.908 L 372.672 829.201 C 370.226 832.829 373.652 836.512 381.743 838.869 C 389.89 841.187 401.252 841.799 411.726 840.483 C 422.196 839.124 429.96 836.033 432.162 832.403 L 487.311 746.277 L 1022.667 697.087 L 583.88 595.47 L 587.312 590.109 C 589.476 587.221 587.876 584.231 582.921 581.902 C 577.966 579.574 570.137 578.133 561.437 577.95 Z  M 569.735 617.559 L 879.535 689.384 L 501.456 724.188 L 569.735 617.559 Z " fill="rgb(0,0,0)"/></g><g><path d=" M 500.696 215.697 L 450.983 572.717 L 855.455 468.155 L 500.696 215.697 Z " fill="rgb(255,0,0)"/><path d=" M 500.695 160.016 C 490.066 159.729 480.383 163.287 478.099 172.765 Q 478.004 173.158 476.163 183.186 L 376.794 809.857 C 375.199 819.24 378.721 828.766 386.106 834.862 C 393.533 840.858 403.508 842.44 412.426 839.036 C 421.334 835.523 427.634 827.528 429.016 818.138 L 464.338 595.382 L 922.835 468.155 L 526.187 205.331 L 528.385 191.466 C 529.843 183.997 528.011 176.261 523.359 170.239 C 518.706 164.217 508.29 160.491 500.695 160.016 Z  M 517.128 262.463 L 797.187 448.232 L 473.397 538.251 L 517.128 262.463 Z " fill="rgb(0,0,0)" vector-effect="non-scaling-stroke" stroke-width="26.438" stroke="rgb(0,0,0)" stroke-linejoin="round" stroke-linecap="round" stroke-miterlimit="4"/></g></g><path d=" M 225 146 Q 234.979 214.622 259.778 261 Q 285.32 308.766 353.778 351" fill="none" vector-effect="non-scaling-stroke" stroke-width="64" stroke="rgb(0,0,0)" stroke-linejoin="miter" stroke-linecap="round" stroke-miterlimit="3"/><path d=" M 136.349 307.301 Q 161.681 375.929 205.545 408.522 Q 259.198 448.388 311.986 458.259" fill="none" vector-effect="non-scaling-stroke" stroke-width="64" stroke="rgb(0,0,0)" stroke-linejoin="miter" stroke-linecap="round" stroke-miterlimit="3"/><path d=" M 92.859 465.844 Q 127.489 530.128 169.943 557.938 Q 221.871 591.954 267 597" fill="none" vector-effect="non-scaling-stroke" stroke-width="64" stroke="rgb(0,0,0)" stroke-linejoin="miter" stroke-linecap="round" stroke-miterlimit="3"/></g></svg>