<?xml version="1.0" encoding="UTF-8" standalone="no"?><!-- Generator: Gravit.io --><svg xmlns="http://www.w3.org/2000/svg" xmlns:xlink="http://www.w3.org/1999/xlink" style="isolation:isolate" viewBox="0 0 500 500" width="500pt" height="500pt"><defs><clipPath id="_clipPath_s8DBgjzN7kCFtX6t1T9Cl5ZKKCpGtQGV"><rect width="500" height="500"/></clipPath></defs><g clip-path="url(#_clipPath_s8DBgjzN7kCFtX6t1T9Cl5ZKKCpGtQGV)"><g opacity="0.8"><ellipse vector-effect="non-scaling-stroke" cx="169.00000000000003" cy="368.9999999999999" rx="38" ry="12" fill="rgb(0,0,0)"/></g><g style="opacity:0.4;"><path d=" M 234.546 263.843 L 198.938 324.932 L 407.723 307.04 L 234.546 263.843 Z " fill="rgb(0,0,0)"/><path d=" M 237.881 254.316 C 237.292 254.321 236.692 254.344 236.147 254.366 C 231.487 254.483 227.202 255.399 224.819 256.788 L 224.078 256.605 L 223.541 257.445 C 223.261 257.717 223.081 257.997 223.006 258.28 L 154.343 365.508 C 153.261 367.113 154.777 368.743 158.358 369.786 C 161.963 370.812 166.991 371.083 171.627 370.5 C 176.26 369.899 179.696 368.531 180.67 366.925 L 205.077 328.81 L 442 307.04 L 247.814 262.069 L 249.333 259.697 C 250.29 258.419 249.582 257.095 247.389 256.065 C 245.196 255.034 241.732 254.397 237.881 254.316 Z  M 241.554 271.845 L 378.657 303.631 L 211.337 319.034 L 241.554 271.845 Z " fill="rgb(0,0,0)"/></g><g><path d=" M 211 94 L 189 252 L 368 205.726 L 211 94 Z " fill="rgb(255,0,0)"/><path d=" M 211 69.358 C 206.296 69.231 202.011 70.806 201 75 Q 200.958 75.174 200.143 79.612 L 156.167 356.947 C 155.461 361.1 157.02 365.315 160.288 368.013 C 163.575 370.667 167.989 371.367 171.936 369.86 C 175.879 368.306 178.667 364.767 179.278 360.612 L 194.91 262.031 L 397.819 205.726 L 222.281 89.413 L 223.254 83.276 C 223.9 79.971 223.089 76.548 221.03 73.882 C 218.971 71.217 214.361 69.568 211 69.358 Z  M 218.272 114.696 L 342.213 196.909 L 198.919 236.747 L 218.272 114.696 Z " fill="rgb(0,0,0)" vector-effect="non-scaling-stroke" stroke-width="11.7" stroke="rgb(0,0,0)" stroke-linejoin="round" stroke-linecap="round" stroke-miterlimit="4"/></g></g></svg>